# xmcd CD database file
#
# Track frame offsets:
#	183
#	23510
#	43383
#	72845
#	97145
#	125160
#	147143
#	161293
#	174548
#	192010
#	214453
#	228245
#
# Disc length: 3220 seconds
#
# Revision: 5
# Processed by: cddbd v1.5.2PL0 Copyright (c) Steve Scherf et al.
# Submitted via: CDex 1.79
#
DISCID=aa0c920c
DTITLE=Louis Armstrong - Ain't Misbehavin'
DYEAR=1987
DGENRE=Blues
TTITLE0=Rockin' Chair
TTITLE1=Where Did You Stay Last Night
TTITLE2=Baby It's Cold Outside
TTITLE3=C Jam Blues
TTITLE4=Stomping At The Savoy
TTITLE5=Tea For Two
TTITLE6=C'est Si Bon
TTITLE7=Lover
TTITLE8=I Love The Guy
TTITLE9=That's My Desire
TTITLE10=Royal Garden Blues
TTITLE11=Ain't Misbehavin'
EXTD=YEAR: 1987
EXTT0=
EXTT1=
EXTT2=
EXTT3=
EXTT4=
EXTT5=
EXTT6=
EXTT7=
EXTT8=
EXTT9=
EXTT10=
EXTT11=
PLAYORDER=
